<?xml version="1.0" encoding="UTF-8" standalone="no"?>
<!-- Created with Inkscape (http://www.inkscape.org/) -->

<svg
   xmlns:dc="http://purl.org/dc/elements/1.1/"
   xmlns:cc="http://creativecommons.org/ns#"
   xmlns:rdf="http://www.w3.org/1999/02/22-rdf-syntax-ns#"
   xmlns:svg="http://www.w3.org/2000/svg"
   xmlns="http://www.w3.org/2000/svg"
   xmlns:sodipodi="http://sodipodi.sourceforge.net/DTD/sodipodi-0.dtd"
   xmlns:inkscape="http://www.inkscape.org/namespaces/inkscape"
   width="420"
   height="150"
   id="svg3070"
   version="1.1"
   inkscape:version="0.92.1 r15371"
   sodipodi:docname="evQueue.svg">
  <defs
     id="defs3072" />
  <sodipodi:namedview
     id="base"
     pagecolor="#ffffff"
     bordercolor="#666666"
     borderopacity="1.0"
     inkscape:pageopacity="0.0"
     inkscape:pageshadow="2"
     inkscape:zoom="1.979899"
     inkscape:cx="199.16487"
     inkscape:cy="133.98072"
     inkscape:document-units="px"
     inkscape:current-layer="layer1"
     showgrid="false"
     inkscape:window-width="1680"
     inkscape:window-height="989"
     inkscape:window-x="0"
     inkscape:window-y="0"
     inkscape:window-maximized="1"
     showborder="true"
     units="px" />
  <metadata
     id="metadata3075">
    <rdf:RDF>
      <cc:Work
         rdf:about="">
        <dc:format>image/svg+xml</dc:format>
        <dc:type
           rdf:resource="http://purl.org/dc/dcmitype/StillImage" />
        <dc:title></dc:title>
      </cc:Work>
    </rdf:RDF>
  </metadata>
  <g
     inkscape:label="Calque 1"
     inkscape:groupmode="layer"
     id="layer1"
     transform="translate(0,-972.51962)">
    <g
       id="g224"
       transform="translate(-170.71578,516.69301)">
      <path
         transform="translate(321.99067,456.6202)"
         sodipodi:open="true"
         sodipodi:end="5.9733357"
         sodipodi:start="5.9766385"
         d="M 70.935201,45.908534 A 16.778805,21.668629 0 0 1 60.015119,73.100497 16.778805,21.668629 0 0 1 38.950387,59.020448 16.778805,21.668629 0 0 1 49.835683,31.805232 16.778805,21.668629 0 0 1 70.918391,45.840339"
         sodipodi:ry="21.668629"
         sodipodi:rx="16.778805"
         sodipodi:cy="52.447437"
         sodipodi:cx="54.938602"
         id="path3077"
         style="opacity:0;fill:#6f916f;fill-opacity:1;stroke:#6f916f;stroke-width:1;stroke-linecap:round;stroke-linejoin:round;stroke-miterlimit:4;stroke-dasharray:none;stroke-opacity:1"
         sodipodi:type="arc" />
      <path
         transform="translate(368.97132,466.01633)"
         sodipodi:open="true"
         sodipodi:end="5.9733357"
         sodipodi:start="5.9766385"
         d="M -19.208389,31.302017 A 13.039529,18.600504 0 0 1 -27.694853,54.64379 13.039529,18.600504 0 0 1 -44.06516,42.557377 13.039529,18.600504 0 0 1 -35.60573,19.195644 13.039529,18.600504 0 0 1 -19.221453,31.243478"
         sodipodi:ry="18.600504"
         sodipodi:rx="13.039529"
         sodipodi:cy="36.915058"
         sodipodi:cx="-31.640032"
         id="path3849"
         style="opacity:0;fill:#6f916f;fill-opacity:1;stroke:#000000;stroke-width:1;stroke-linecap:round;stroke-linejoin:round;stroke-miterlimit:4;stroke-dasharray:none;stroke-opacity:0.94117647"
         sodipodi:type="arc" />
      <path
         sodipodi:nodetypes="cccccccccccccc"
         inkscape:connector-curvature="0"
         id="path3861"
         d="m 433.21018,583.08614 -44.48781,-44.87132 c -8.59293,1.35321 -16.52664,-0.58965 -23.5862,-6.90328 -6.45637,-8.72507 -6.55073,-16.3898 -3.83516,-23.58621 l 13.42304,14.19008 c 1.34231,0.88011 2.68461,0.6463 4.02692,0 l 8.05382,-7.86207 c 0.89128,-1.3423 -0.24112,-2.68461 -0.76703,-4.02691 L 372.2312,495.83635 c 6.31127,-2.4398 13.5243,-2.81841 23.39445,2.87637 6.91631,5.46355 9.58348,13.70863 7.2868,25.31202 l 44.10429,42.95375 c 1.18783,5.25356 0.85571,9.63857 -1.53407,12.84777 -4.09083,3.75864 -8.18166,2.81086 -12.27249,3.25988 z"
         style="fill:#4993ce;fill-opacity:1;stroke:#000000;stroke-width:3;stroke-linecap:butt;stroke-linejoin:miter;stroke-miterlimit:4;stroke-dasharray:none;stroke-opacity:1" />
      <path
         transform="matrix(0.42689416,0,0,0.41278262,423.205,556.72178)"
         sodipodi:open="true"
         sodipodi:end="5.9733357"
         sodipodi:start="5.9766385"
         d="M 45.11539,36.002871 A 11.21783,11.601345 0 0 1 37.814535,50.561399 11.21783,11.601345 0 0 1 23.731256,43.022966 11.21783,11.601345 0 0 1 31.008854,28.451988 11.21783,11.601345 0 0 1 45.104151,35.966359"
         sodipodi:ry="11.601345"
         sodipodi:rx="11.21783"
         sodipodi:cy="39.503788"
         sodipodi:cx="34.420521"
         id="path3867"
         style="fill:#ffffff;fill-opacity:1;stroke:#000000;stroke-width:7.14661598;stroke-linecap:round;stroke-linejoin:bevel;stroke-miterlimit:4;stroke-dasharray:none;stroke-opacity:1"
         sodipodi:type="arc" />
      <path
         sodipodi:nodetypes="cccssccccccccccccccccccccccccc"
         inkscape:connector-curvature="0"
         id="path3871"
         d="m 413.79501,504.87907 c 2.31822,7.21995 2.00782,14.64008 -0.40262,21.25667 m 0.36881,-21.36135 c -5.66866,-17.45405 -24.59147,-27.09921 -42.31571,-21.56877 -17.76572,5.54339 -27.60911,24.23451 -21.98583,41.74781 5.37545,16.74145 22.93846,26.34635 39.9949,22.31816 l 8.33272,9.28081 c -5.1054,-1.59185 -8.77862,6.12546 -12.47458,13.69492 l -9.49152,0.54237 c -3.2668,-4.6204 -2.8216,-10.03621 -10.57628,-13.69491 -10.00072,-6.23864 -13.22085,0.0408 -18.98305,1.62712 l -9.22034,-8.54238 c 7.10053,-14.85286 2.20001,-16.3313 0.54238,-21.42373 -1.18525,-4.67542 -9.09464,-6.29442 -13.83051,-9.35593 v -10.30508 c 9.33205,-3.4192 14.66747,-7.78997 16.40678,-13.01695 2.09946,-4.36233 0.0314,-10.11383 -3.25424,-16.27119 l 10.16949,-9.62712 c 3.98388,3.85662 8.95985,5.82827 16.54237,2.84746 7.46807,-2.42388 9.4905,-8.2734 10.57628,-14.23729 h 11.66101 c 1.81579,5.08703 3.21416,10.45233 9.22034,12.74576 8.40069,5.03898 14.09579,2.29941 19.66102,-0.81356 l 9.22034,8.40678 c -2.30781,5.84317 -5.49244,11.48002 -1.8983,18.71187 4.20334,7.68399 9.36707,8.16501 14.23728,10.84746 l 0.40678,11.79661 c -3.74304,1.58081 -8.20363,1.96569 -10.98305,5.15254 -3.3835,2.68048 -3.7591,5.79067 -4.74576,8.81356 l -7.58133,-8.31497"
         style="fill:#4993ce;fill-opacity:1;stroke:#000000;stroke-width:3;stroke-linecap:round;stroke-linejoin:bevel;stroke-miterlimit:4;stroke-dasharray:none;stroke-opacity:1" />
      <g
         id="flowRoot2987"
         style="font-style:normal;font-variant:normal;font-weight:normal;font-stretch:normal;font-size:72px;line-height:125%;font-family:UnDinaru;-inkscape-font-specification:UnDinaru;text-align:start;letter-spacing:0px;word-spacing:0px;writing-mode:lr-tb;text-anchor:start;fill:#000000;fill-opacity:1;stroke:none"
         transform="matrix(1,0,0,1.0195141,-29.294424,-66.85)">
        <path
           id="path3855"
           d="m 472.97266,561.55148 c -1e-5,-2.15621 1.03124,-3.23434 3.09375,-3.23437 0.8203,3e-5 1.55858,0.26957 2.21484,0.80859 0.6328,0.56254 0.94921,1.37113 0.94922,2.42578 v 20.95313 c -1e-5,2.97657 0.73827,5.3086 2.21484,6.99609 1.49999,1.73438 3.69139,2.60157 6.57422,2.60156 5.99998,10e-6 8.99997,-3.19921 9,-9.59765 v -20.95313 c -3e-5,-2.15621 1.03122,-3.23434 3.09375,-3.23437 0.86716,3e-5 1.60544,0.24613 2.21484,0.73828 0.63278,0.46878 0.94919,1.30082 0.94922,2.49609 v 21.09375 c -3e-5,5.90626 -2.22659,10.1836 -6.67968,12.83203 -2.36722,1.38281 -5.27346,2.07422 -8.71875,2.07422 -6.44533,0 -10.86329,-2.49609 -13.25391,-7.48828 -1.10157,-2.34374 -1.65235,-4.81639 -1.65234,-7.41797 v -21.09375"
           inkscape:connector-curvature="0" />
        <path
           id="path3857"
           d="m 517.19922,561.12961 c 2.67186,-1.87497 5.58983,-2.81247 8.7539,-2.8125 6.72654,3e-5 11.62497,3.26956 14.69532,9.80859 1.45309,3.02346 2.17965,6.09377 2.17968,9.21094 -3e-5,2.06251 -1.18362,3.09376 -3.55078,3.09375 h -23.90625 c 0,4.89845 1.94531,8.33204 5.83594,10.30078 1.78124,0.91407 3.72655,1.3711 5.83594,1.37109 3.74998,10e-6 7.18357,-1.32421 10.30078,-3.97265 0.91403,-0.77343 1.71091,-1.16015 2.39062,-1.16016 1.47653,10e-6 2.21481,0.89063 2.21485,2.67187 -4e-5,0.8672 -0.30472,1.64064 -0.91406,2.32032 -1.50004,1.66406 -3.71488,3.04687 -6.64454,4.14843 -2.64846,0.96094 -5.21486,1.44141 -7.69921,1.44141 -5.83595,0 -10.37111,-2.15625 -13.60547,-6.46875 -1.50001,-2.01562 -2.55469,-4.14843 -3.16407,-6.39844 -0.67968,-2.41404 -1.01953,-4.65232 -1.01953,-6.71484 l 0.0703,-0.28125 c 0.0469,-3.16404 0.82031,-6.28122 2.32031,-9.35156 1.42968,-3.07028 3.39843,-5.47262 5.90625,-7.20703 m -1.82813,14.48437 h 21.09375 c -3e-5,-3.42185 -0.90237,-6.25778 -2.70703,-8.50781 -1.78127,-2.20309 -4.28908,-3.30466 -7.52344,-3.30469 -3.21095,3e-5 -5.76563,1.03128 -7.66406,3.09375 -2.13282,2.25003 -3.19922,5.15628 -3.19922,8.71875"
           inkscape:connector-curvature="0" />
        <path
           id="path3859"
           d="m 548.91016,561.55148 c -10e-6,-2.15621 1.03124,-3.23434 3.09375,-3.23437 0.8203,3e-5 1.55858,0.26957 2.21484,0.80859 0.6328,0.56254 0.94921,1.37113 0.94922,2.42578 v 20.95313 c -10e-6,2.97657 0.73827,5.3086 2.21484,6.99609 1.49999,1.73438 3.69139,2.60157 6.57422,2.60156 5.99998,10e-6 8.99997,-3.19921 9,-9.59765 v -20.95313 c -3e-5,-2.15621 1.03122,-3.23434 3.09375,-3.23437 0.86716,3e-5 1.60544,0.24613 2.21484,0.73828 0.63278,0.46878 0.94919,1.30082 0.94922,2.49609 v 21.09375 c -3e-5,5.90626 -2.22659,10.1836 -6.67968,12.83203 -2.36722,1.38281 -5.27346,2.07422 -8.71875,2.07422 -6.44533,0 -10.86329,-2.49609 -13.25391,-7.48828 -1.10157,-2.34374 -1.65235,-4.81639 -1.65234,-7.41797 v -21.09375"
           inkscape:connector-curvature="0" />
        <path
           id="path3862"
           d="m 593.13672,561.12961 c 2.67186,-1.87497 5.58983,-2.81247 8.7539,-2.8125 6.72654,3e-5 11.62497,3.26956 14.69532,9.80859 1.45309,3.02346 2.17965,6.09377 2.17968,9.21094 -3e-5,2.06251 -1.18362,3.09376 -3.55078,3.09375 h -23.90625 c 0,4.89845 1.94531,8.33204 5.83594,10.30078 1.78124,0.91407 3.72655,1.3711 5.83594,1.37109 3.74998,10e-6 7.18357,-1.32421 10.30078,-3.97265 0.91403,-0.77343 1.71091,-1.16015 2.39062,-1.16016 1.47653,10e-6 2.21481,0.89063 2.21485,2.67187 -4e-5,0.8672 -0.30472,1.64064 -0.91406,2.32032 -1.50004,1.66406 -3.71488,3.04687 -6.64454,4.14843 -2.64846,0.96094 -5.21486,1.44141 -7.69921,1.44141 -5.83595,0 -10.37111,-2.15625 -13.60547,-6.46875 -1.50001,-2.01562 -2.55469,-4.14843 -3.16407,-6.39844 -0.67968,-2.41404 -1.01953,-4.65232 -1.01953,-6.71484 l 0.0703,-0.28125 c 0.0469,-3.16404 0.82031,-6.28122 2.32031,-9.35156 1.42968,-3.07028 3.39843,-5.47262 5.90625,-7.20703 m -1.82813,14.48437 h 21.09375 c -3e-5,-3.42185 -0.90237,-6.25778 -2.70703,-8.50781 -1.78127,-2.20309 -4.28908,-3.30466 -7.52344,-3.30469 -3.21095,3e-5 -5.76563,1.03128 -7.66406,3.09375 -2.13282,2.25003 -3.19922,5.15628 -3.19922,8.71875"
           inkscape:connector-curvature="0" />
      </g>
      <rect
         y="512.77356"
         x="214.98282"
         height="21.034359"
         width="21.034357"
         id="rect3767"
         style="fill:#4993ce;fill-opacity:1;fill-rule:evenodd;stroke:#000000;stroke-width:0.96564138;stroke-linecap:butt;stroke-linejoin:miter;stroke-miterlimit:4;stroke-dasharray:none;stroke-opacity:1" />
      <rect
         y="464.03775"
         x="172.48282"
         height="21.034359"
         width="21.034357"
         id="rect3767-9"
         style="fill:#4993ce;fill-opacity:1;fill-rule:evenodd;stroke:#000000;stroke-width:0.96564138;stroke-linecap:butt;stroke-linejoin:miter;stroke-miterlimit:4;stroke-dasharray:none;stroke-opacity:1" />
      <rect
         y="582.84503"
         x="214.98282"
         height="21.034359"
         width="21.034357"
         id="rect3767-9-2"
         style="fill:#4993ce;fill-opacity:1;fill-rule:evenodd;stroke:#000000;stroke-width:0.96564138;stroke-linecap:butt;stroke-linejoin:miter;stroke-miterlimit:4;stroke-dasharray:none;stroke-opacity:1" />
      <path
         sodipodi:nodetypes="ccc"
         inkscape:connector-curvature="0"
         id="path3807"
         d="m 183,485.41407 v 37.87711 h 31.65741"
         style="fill:none;stroke:#000000;stroke-width:1px;stroke-linecap:butt;stroke-linejoin:miter;stroke-opacity:1" />
      <path
         sodipodi:nodetypes="ccc"
         inkscape:connector-curvature="0"
         id="path3809"
         d="m 183,523.29118 v 70.071 h 31.65741"
         style="fill:none;stroke:#000000;stroke-width:1px;stroke-linecap:butt;stroke-linejoin:miter;stroke-opacity:1" />
      <path
         sodipodi:nodetypes="cccc"
         inkscape:connector-curvature="0"
         id="path4482"
         d="m 284.24507,522.86506 c 11.33456,10.35153 21.09387,8.45582 30.08892,1.3e-4 -4.2056,6.66469 -9.81813,11.41629 -15.13244,16.90135 -5.0772,-5.4983 -10.71825,-10.16339 -14.95648,-16.90148 z"
         style="fill:#4993ce;fill-opacity:1;stroke:#4993ce;stroke-width:0.42711183;stroke-linecap:butt;stroke-linejoin:miter;stroke-miterlimit:4;stroke-dasharray:none;stroke-opacity:1" />
      <path
         sodipodi:nodetypes="cc"
         inkscape:connector-curvature="0"
         id="path4464"
         d="m 277.30152,508.4224 43.79474,0.0603"
         style="fill:none;fill-opacity:1;stroke:#000000;stroke-width:0.64066774;stroke-linecap:butt;stroke-linejoin:miter;stroke-miterlimit:4;stroke-dasharray:none;stroke-opacity:1" />
      <path
         sodipodi:nodetypes="ccc"
         inkscape:connector-curvature="0"
         id="path4476"
         d="m 279.97236,570.00076 h 19.25424 19.25422"
         style="fill:none;stroke:#000000;stroke-width:0.42711183;stroke-linecap:butt;stroke-linejoin:miter;stroke-miterlimit:4;stroke-dasharray:none;stroke-opacity:1" />
      <path
         style="fill:#4993ce;fill-opacity:1;stroke:#4993ce;stroke-width:0.21355592px;stroke-linecap:butt;stroke-linejoin:miter;stroke-opacity:1"
         d="m 279.89026,570.00076 h 38.71264 c -3.21984,-2.14586 -5.99502,-5.86868 -8.88617,-9.18025 -2.52662,-2.69643 -4.91196,-5.55984 -10.47015,-5.97268 -5.55818,0.41284 -7.94352,3.27625 -10.47014,5.97268 -2.89115,3.31157 -5.66633,7.03439 -8.88618,9.18025 h 38.71264"
         id="path4486"
         inkscape:connector-curvature="0"
         sodipodi:nodetypes="ccccccc" />
      <g
         id="flowRoot5152"
         style="font-style:normal;font-variant:normal;font-weight:normal;font-stretch:normal;font-size:72px;line-height:125%;font-family:UnDinaru;-inkscape-font-specification:UnDinaru;text-align:start;letter-spacing:0px;word-spacing:0px;writing-mode:lr-tb;text-anchor:start;fill:#000000;fill-opacity:1;stroke:none"
         transform="translate(-24.748737,-162.63456)">
        <path
           id="path5161"
           d="m 273.60547,670.72336 c 2.67186,-1.87497 5.58983,-2.81247 8.7539,-2.8125 6.72654,3e-5 11.62497,3.26956 14.69532,9.80859 1.45309,3.02346 2.17965,6.09377 2.17968,9.21094 -3e-5,2.06251 -1.18362,3.09376 -3.55078,3.09375 h -23.90625 c 0,4.89845 1.94531,8.33204 5.83594,10.30078 1.78124,0.91407 3.72655,1.3711 5.83594,1.37109 3.74998,10e-6 7.18357,-1.32421 10.30078,-3.97265 0.91403,-0.77343 1.71091,-1.16015 2.39062,-1.16016 1.47653,10e-6 2.21481,0.89063 2.21485,2.67187 -4e-5,0.8672 -0.30472,1.64064 -0.91406,2.32032 -1.50004,1.66406 -3.71488,3.04687 -6.64454,4.14843 -2.64846,0.96094 -5.21486,1.44141 -7.69921,1.44141 -5.83595,0 -10.37111,-2.15625 -13.60547,-6.46875 -1.50001,-2.01562 -2.55469,-4.14843 -3.16407,-6.39844 -0.67968,-2.41404 -1.01953,-4.65232 -1.01953,-6.71484 l 0.0703,-0.28125 c 0.0469,-3.16404 0.82031,-6.28122 2.32031,-9.35156 1.42968,-3.07028 3.39843,-5.47262 5.90625,-7.20703 m -1.82813,14.48437 h 21.09375 c -3e-5,-3.42185 -0.90237,-6.25778 -2.70703,-8.50781 -1.78127,-2.20309 -4.28908,-3.30466 -7.52344,-3.30469 -3.21095,3e-5 -5.76563,1.03128 -7.66406,3.09375 -2.13282,2.25003 -3.19922,5.15628 -3.19922,8.71875"
           inkscape:connector-curvature="0" />
      </g>
      <path
         style="fill:none;stroke:#000000;stroke-width:5;stroke-linecap:round;stroke-linejoin:miter;stroke-miterlimit:4;stroke-dasharray:none;stroke-opacity:1"
         d="m 318.59245,508.43799 c 0.48291,13.1343 -10.52623,21.73998 -19.40975,31.18329"
         id="path3954"
         inkscape:connector-curvature="0"
         sodipodi:nodetypes="cc" />
      <path
         sodipodi:nodetypes="cc"
         inkscape:connector-curvature="0"
         id="path3950"
         d="m 279.78573,508.43799 c -0.48292,13.1343 10.52623,21.73998 19.40975,31.18329"
         style="fill:none;stroke:#000000;stroke-width:5;stroke-linecap:round;stroke-linejoin:miter;stroke-miterlimit:4;stroke-dasharray:none;stroke-opacity:1" />
      <path
         sodipodi:nodetypes="cc"
         inkscape:connector-curvature="0"
         id="path4474"
         d="m 279.53688,571.73718 39.44162,0.017"
         style="fill:none;stroke:#000000;stroke-width:3;stroke-linecap:butt;stroke-linejoin:bevel;stroke-miterlimit:4;stroke-dasharray:none;stroke-opacity:1" />
      <path
         style="fill:none;fill-opacity:1;stroke:#000000;stroke-width:0.64066774;stroke-linecap:butt;stroke-linejoin:miter;stroke-miterlimit:4;stroke-dasharray:none;stroke-opacity:1"
         d="m 279.84793,571.02522 c -0.48291,-13.13432 10.52625,-21.73998 19.40977,-31.18328"
         id="path4470"
         inkscape:connector-curvature="0"
         sodipodi:nodetypes="cc" />
      <path
         sodipodi:nodetypes="cc"
         inkscape:connector-curvature="0"
         id="path4472"
         d="m 318.65467,571.02522 c 0.4829,-13.13432 -10.52625,-21.73998 -19.40977,-31.18328"
         style="fill:none;fill-opacity:1;stroke:#000000;stroke-width:0.64066774;stroke-linecap:butt;stroke-linejoin:miter;stroke-miterlimit:4;stroke-dasharray:none;stroke-opacity:1" />
    </g>
  </g>
</svg>
