<?xml version="1.0" encoding="UTF-8" standalone="no"?>
<!-- Created with Inkscape (http://www.inkscape.org/) -->

<svg
   xmlns:dc="http://purl.org/dc/elements/1.1/"
   xmlns:cc="http://creativecommons.org/ns#"
   xmlns:rdf="http://www.w3.org/1999/02/22-rdf-syntax-ns#"
   xmlns:svg="http://www.w3.org/2000/svg"
   xmlns="http://www.w3.org/2000/svg"
   xmlns:sodipodi="http://sodipodi.sourceforge.net/DTD/sodipodi-0.dtd"
   xmlns:inkscape="http://www.inkscape.org/namespaces/inkscape"
   width="348.91135"
   height="127.3664"
   id="svg3070"
   version="1.1"
   inkscape:version="0.92.1 r15371"
   sodipodi:docname="evQueue-small.svg">
  <defs
     id="defs3072" />
  <sodipodi:namedview
     id="base"
     pagecolor="#ffffff"
     bordercolor="#666666"
     borderopacity="1.0"
     inkscape:pageopacity="0.0"
     inkscape:pageshadow="2"
     inkscape:zoom="1.979899"
     inkscape:cx="137.90709"
     inkscape:cy="10.78479"
     inkscape:document-units="px"
     inkscape:current-layer="layer1"
     showgrid="false"
     inkscape:window-width="1680"
     inkscape:window-height="989"
     inkscape:window-x="0"
     inkscape:window-y="0"
     inkscape:window-maximized="1"
     showborder="true"
     units="px" />
  <metadata
     id="metadata3075">
    <rdf:RDF>
      <cc:Work
         rdf:about="">
        <dc:format>image/svg+xml</dc:format>
        <dc:type
           rdf:resource="http://purl.org/dc/dcmitype/StillImage" />
        <dc:title></dc:title>
      </cc:Work>
    </rdf:RDF>
  </metadata>
  <g
     inkscape:label="Calque 1"
     inkscape:groupmode="layer"
     id="layer1"
     transform="translate(-69.84407,-973.9827)">
    <path
       sodipodi:type="arc"
       style="opacity:0;fill:#6f916f;fill-opacity:1;stroke:#6f916f;stroke-width:1;stroke-linecap:round;stroke-linejoin:round;stroke-miterlimit:4;stroke-dasharray:none;stroke-opacity:1"
       id="path3077"
       sodipodi:cx="206.21349"
       sodipodi:cy="1025.7606"
       sodipodi:rx="16.778805"
       sodipodi:ry="21.668629"
       d="m 222.21008,1019.2217 a 16.778805,21.668629 0 0 1 -10.92008,27.192 16.778805,21.668629 0 0 1 -21.06473,-14.0801 16.778805,21.668629 0 0 1 10.8853,-27.2152 16.778805,21.668629 0 0 1 21.0827,14.0351"
       sodipodi:start="5.9766385"
       sodipodi:end="5.9733357"
       sodipodi:open="true" />
    <path
       sodipodi:type="arc"
       style="opacity:0;fill:#6f916f;fill-opacity:1;stroke:#000000;stroke-width:1;stroke-linecap:round;stroke-linejoin:round;stroke-miterlimit:4;stroke-dasharray:none;stroke-opacity:0.94117647"
       id="path3849"
       sodipodi:cx="166.61551"
       sodipodi:cy="1019.6244"
       sodipodi:rx="13.039529"
       sodipodi:ry="18.600504"
       d="m 179.04715,1014.0113 a 13.039529,18.600504 0 0 1 -8.48646,23.3418 13.039529,18.600504 0 0 1 -16.37031,-12.0864 13.039529,18.600504 0 0 1 8.45943,-23.3617 13.039529,18.600504 0 0 1 16.38428,12.0478"
       sodipodi:start="5.9766385"
       sodipodi:end="5.9733357"
       sodipodi:open="true" />
    <path
       style="fill:#4993ce;fill-opacity:1;stroke:#000000;stroke-width:3;stroke-linecap:butt;stroke-linejoin:miter;stroke-miterlimit:4;stroke-dasharray:none;stroke-opacity:1"
       d="m 262.4944,1099.7791 -44.48781,-44.8713 c -8.59293,1.3532 -16.52664,-0.5896 -23.5862,-6.9032 -6.45637,-8.7251 -6.55073,-16.3898 -3.83516,-23.5863 l 13.42304,14.1901 c 1.34231,0.8801 2.68461,0.6463 4.02692,0 l 8.05382,-7.8621 c 0.89128,-1.3422 -0.24112,-2.6846 -0.76703,-4.0269 l -13.80656,-14.19 c 6.31127,-2.4398 13.5243,-2.8185 23.39445,2.8763 6.91631,5.4636 9.58348,13.7087 7.2868,25.312 l 44.10429,42.9538 c 1.18783,5.2536 0.85571,9.6386 -1.53407,12.8478 -4.09083,3.7586 -8.18166,2.8108 -12.27249,3.2598 z"
       id="path3861"
       inkscape:connector-curvature="0"
       sodipodi:nodetypes="cccccccccccccc" />
    <path
       sodipodi:type="arc"
       style="fill:#ffffff;fill-opacity:1;stroke:#000000;stroke-width:3;stroke-linecap:round;stroke-linejoin:bevel;stroke-miterlimit:4;stroke-dasharray:none;stroke-opacity:1"
       id="path3867"
       sodipodi:cx="267.18314"
       sodipodi:cy="1089.7213"
       sodipodi:rx="4.788826"
       sodipodi:ry="4.7888336"
       d="m 271.74871,1088.2762 a 4.788826,4.7888336 0 0 1 -3.11669,6.0095 4.788826,4.7888336 0 0 1 -6.01207,-3.1117 4.788826,4.7888336 0 0 1 3.10677,-6.0147 4.788826,4.7888336 0 0 1 6.0172,3.1018"
       sodipodi:start="5.9766385"
       sodipodi:end="5.9733357"
       sodipodi:open="true" />
    <path
       style="fill:#4993ce;fill-opacity:1;stroke:#000000;stroke-width:3;stroke-linecap:round;stroke-linejoin:bevel;stroke-miterlimit:4;stroke-dasharray:none;stroke-opacity:1"
       d="m 243.07923,1021.5721 c 2.31822,7.2199 2.00782,14.6401 -0.40262,21.2567 m 0.36881,-21.3614 c -5.66866,-17.4541 -24.59147,-27.09921 -42.31571,-21.56877 -17.76572,5.54337 -27.60911,24.23447 -21.98583,41.74777 5.37545,16.7415 22.93846,26.3464 39.9949,22.3182 l 8.33272,9.2808 c -5.1054,-1.5918 -8.77862,6.1255 -12.47458,13.6949 l -9.49152,0.5424 c -3.2668,-4.6204 -2.8216,-10.0362 -10.57628,-13.6949 -10.00072,-6.2387 -13.22085,0.041 -18.98305,1.6271 l -9.22034,-8.5424 c 7.10053,-14.8528 2.20001,-16.3313 0.54238,-21.4237 -1.18525,-4.6754 -9.09464,-6.2944 -13.83051,-9.3559 v -10.3051 c 9.33205,-3.4192 14.66747,-7.79 16.40678,-13.017 2.09946,-4.3623 0.0314,-10.1138 -3.25424,-16.27115 l 10.16949,-9.62712 c 3.98388,3.85662 8.95985,5.82827 16.54237,2.84746 7.46807,-2.42388 9.4905,-8.2734 10.57628,-14.23729 h 11.66101 c 1.81579,5.08703 3.21416,10.45233 9.22034,12.74576 8.40069,5.03898 14.09579,2.29941 19.66102,-0.81356 l 9.22034,8.40678 c -2.30781,5.84322 -5.49244,11.48002 -1.8983,18.71192 4.20334,7.6839 9.36707,8.165 14.23728,10.8474 l 0.40678,11.7966 c -3.74304,1.5808 -8.20363,1.9657 -10.98305,5.1526 -3.3835,2.6804 -3.7591,5.7906 -4.74576,8.8135 l -7.58133,-8.3149"
       id="path3871"
       inkscape:connector-curvature="0"
       sodipodi:nodetypes="cccssccccccccccccccccccccccccc" />
    <g
       transform="matrix(1,0,0,1.0195141,-200.0102,449.84301)"
       style="font-style:normal;font-variant:normal;font-weight:normal;font-stretch:normal;font-size:72px;line-height:125%;font-family:UnDinaru;-inkscape-font-specification:UnDinaru;text-align:start;letter-spacing:0px;word-spacing:0px;writing-mode:lr-tb;text-anchor:start;fill:#000000;fill-opacity:1;stroke:none"
       id="flowRoot2987">
      <path
         inkscape:connector-curvature="0"
         d="m 472.97266,561.55148 c -1e-5,-2.15621 1.03124,-3.23434 3.09375,-3.23437 0.8203,3e-5 1.55858,0.26957 2.21484,0.80859 0.6328,0.56254 0.94921,1.37113 0.94922,2.42578 v 20.95313 c -1e-5,2.97657 0.73827,5.3086 2.21484,6.99609 1.49999,1.73438 3.69139,2.60157 6.57422,2.60156 5.99998,10e-6 8.99997,-3.19921 9,-9.59765 v -20.95313 c -3e-5,-2.15621 1.03122,-3.23434 3.09375,-3.23437 0.86716,3e-5 1.60544,0.24613 2.21484,0.73828 0.63278,0.46878 0.94919,1.30082 0.94922,2.49609 v 21.09375 c -3e-5,5.90626 -2.22659,10.1836 -6.67968,12.83203 -2.36722,1.38281 -5.27346,2.07422 -8.71875,2.07422 -6.44533,0 -10.86329,-2.49609 -13.25391,-7.48828 -1.10157,-2.34374 -1.65235,-4.81639 -1.65234,-7.41797 v -21.09375"
         id="path3855" />
      <path
         inkscape:connector-curvature="0"
         d="m 517.19922,561.12961 c 2.67186,-1.87497 5.58983,-2.81247 8.7539,-2.8125 6.72654,3e-5 11.62497,3.26956 14.69532,9.80859 1.45309,3.02346 2.17965,6.09377 2.17968,9.21094 -3e-5,2.06251 -1.18362,3.09376 -3.55078,3.09375 h -23.90625 c 0,4.89845 1.94531,8.33204 5.83594,10.30078 1.78124,0.91407 3.72655,1.3711 5.83594,1.37109 3.74998,10e-6 7.18357,-1.32421 10.30078,-3.97265 0.91403,-0.77343 1.71091,-1.16015 2.39062,-1.16016 1.47653,10e-6 2.21481,0.89063 2.21485,2.67187 -4e-5,0.8672 -0.30472,1.64064 -0.91406,2.32032 -1.50004,1.66406 -3.71488,3.04687 -6.64454,4.14843 -2.64846,0.96094 -5.21486,1.44141 -7.69921,1.44141 -5.83595,0 -10.37111,-2.15625 -13.60547,-6.46875 -1.50001,-2.01562 -2.55469,-4.14843 -3.16407,-6.39844 -0.67968,-2.41404 -1.01953,-4.65232 -1.01953,-6.71484 l 0.0703,-0.28125 c 0.0469,-3.16404 0.82031,-6.28122 2.32031,-9.35156 1.42968,-3.07028 3.39843,-5.47262 5.90625,-7.20703 m -1.82813,14.48437 h 21.09375 c -3e-5,-3.42185 -0.90237,-6.25778 -2.70703,-8.50781 -1.78127,-2.20309 -4.28908,-3.30466 -7.52344,-3.30469 -3.21095,3e-5 -5.76563,1.03128 -7.66406,3.09375 -2.13282,2.25003 -3.19922,5.15628 -3.19922,8.71875"
         id="path3857" />
      <path
         inkscape:connector-curvature="0"
         d="m 548.91016,561.55148 c -10e-6,-2.15621 1.03124,-3.23434 3.09375,-3.23437 0.8203,3e-5 1.55858,0.26957 2.21484,0.80859 0.6328,0.56254 0.94921,1.37113 0.94922,2.42578 v 20.95313 c -10e-6,2.97657 0.73827,5.3086 2.21484,6.99609 1.49999,1.73438 3.69139,2.60157 6.57422,2.60156 5.99998,10e-6 8.99997,-3.19921 9,-9.59765 v -20.95313 c -3e-5,-2.15621 1.03122,-3.23434 3.09375,-3.23437 0.86716,3e-5 1.60544,0.24613 2.21484,0.73828 0.63278,0.46878 0.94919,1.30082 0.94922,2.49609 v 21.09375 c -3e-5,5.90626 -2.22659,10.1836 -6.67968,12.83203 -2.36722,1.38281 -5.27346,2.07422 -8.71875,2.07422 -6.44533,0 -10.86329,-2.49609 -13.25391,-7.48828 -1.10157,-2.34374 -1.65235,-4.81639 -1.65234,-7.41797 v -21.09375"
         id="path3859" />
      <path
         inkscape:connector-curvature="0"
         d="m 593.13672,561.12961 c 2.67186,-1.87497 5.58983,-2.81247 8.7539,-2.8125 6.72654,3e-5 11.62497,3.26956 14.69532,9.80859 1.45309,3.02346 2.17965,6.09377 2.17968,9.21094 -3e-5,2.06251 -1.18362,3.09376 -3.55078,3.09375 h -23.90625 c 0,4.89845 1.94531,8.33204 5.83594,10.30078 1.78124,0.91407 3.72655,1.3711 5.83594,1.37109 3.74998,10e-6 7.18357,-1.32421 10.30078,-3.97265 0.91403,-0.77343 1.71091,-1.16015 2.39062,-1.16016 1.47653,10e-6 2.21481,0.89063 2.21485,2.67187 -4e-5,0.8672 -0.30472,1.64064 -0.91406,2.32032 -1.50004,1.66406 -3.71488,3.04687 -6.64454,4.14843 -2.64846,0.96094 -5.21486,1.44141 -7.69921,1.44141 -5.83595,0 -10.37111,-2.15625 -13.60547,-6.46875 -1.50001,-2.01562 -2.55469,-4.14843 -3.16407,-6.39844 -0.67968,-2.41404 -1.01953,-4.65232 -1.01953,-6.71484 l 0.0703,-0.28125 c 0.0469,-3.16404 0.82031,-6.28122 2.32031,-9.35156 1.42968,-3.07028 3.39843,-5.47262 5.90625,-7.20703 m -1.82813,14.48437 h 21.09375 c -3e-5,-3.42185 -0.90237,-6.25778 -2.70703,-8.50781 -1.78127,-2.20309 -4.28908,-3.30466 -7.52344,-3.30469 -3.21095,3e-5 -5.76563,1.03128 -7.66406,3.09375 -2.13282,2.25003 -3.19922,5.15628 -3.19922,8.71875"
         id="path3862" />
    </g>
    <path
       style="fill:#4993ce;fill-opacity:1;stroke:#4993ce;stroke-width:0.42711183;stroke-linecap:butt;stroke-linejoin:miter;stroke-miterlimit:4;stroke-dasharray:none;stroke-opacity:1"
       d="m 113.52929,1039.5581 c 11.33456,10.3515 21.09387,8.4558 30.08892,10e-5 -4.2056,6.6647 -9.81813,11.4163 -15.13244,16.9014 -5.0772,-5.4984 -10.71825,-10.1634 -14.95648,-16.9015 z"
       id="path4482"
       inkscape:connector-curvature="0"
       sodipodi:nodetypes="cccc" />
    <path
       style="fill:none;fill-opacity:1;stroke:#000000;stroke-width:0.64066774;stroke-linecap:butt;stroke-linejoin:miter;stroke-miterlimit:4;stroke-dasharray:none;stroke-opacity:1"
       d="m 106.58574,1025.1154 43.79474,0.06"
       id="path4464"
       inkscape:connector-curvature="0"
       sodipodi:nodetypes="cc" />
    <path
       style="fill:none;stroke:#000000;stroke-width:0.42711183;stroke-linecap:butt;stroke-linejoin:miter;stroke-miterlimit:4;stroke-dasharray:none;stroke-opacity:1"
       d="m 109.25658,1086.6938 h 19.25424 19.25422"
       id="path4476"
       inkscape:connector-curvature="0"
       sodipodi:nodetypes="ccc" />
    <path
       sodipodi:nodetypes="ccccccc"
       inkscape:connector-curvature="0"
       id="path4486"
       d="m 109.17448,1086.6938 h 38.71264 c -3.21984,-2.1459 -5.99502,-5.8687 -8.88617,-9.1803 -2.52662,-2.6964 -4.91196,-5.5598 -10.47015,-5.9727 -5.55818,0.4129 -7.94352,3.2763 -10.47014,5.9727 -2.89115,3.3116 -5.66633,7.0344 -8.88618,9.1803 h 38.71264"
       style="fill:#4993ce;fill-opacity:1;stroke:#4993ce;stroke-width:0.21355592px;stroke-linecap:butt;stroke-linejoin:miter;stroke-opacity:1" />
    <g
       transform="translate(-195.46452,354.05845)"
       style="font-style:normal;font-variant:normal;font-weight:normal;font-stretch:normal;font-size:72px;line-height:125%;font-family:UnDinaru;-inkscape-font-specification:UnDinaru;text-align:start;letter-spacing:0px;word-spacing:0px;writing-mode:lr-tb;text-anchor:start;fill:#000000;fill-opacity:1;stroke:none"
       id="flowRoot5152">
      <path
         inkscape:connector-curvature="0"
         d="m 273.60547,670.72336 c 2.67186,-1.87497 5.58983,-2.81247 8.7539,-2.8125 6.72654,3e-5 11.62497,3.26956 14.69532,9.80859 1.45309,3.02346 2.17965,6.09377 2.17968,9.21094 -3e-5,2.06251 -1.18362,3.09376 -3.55078,3.09375 h -23.90625 c 0,4.89845 1.94531,8.33204 5.83594,10.30078 1.78124,0.91407 3.72655,1.3711 5.83594,1.37109 3.74998,10e-6 7.18357,-1.32421 10.30078,-3.97265 0.91403,-0.77343 1.71091,-1.16015 2.39062,-1.16016 1.47653,10e-6 2.21481,0.89063 2.21485,2.67187 -4e-5,0.8672 -0.30472,1.64064 -0.91406,2.32032 -1.50004,1.66406 -3.71488,3.04687 -6.64454,4.14843 -2.64846,0.96094 -5.21486,1.44141 -7.69921,1.44141 -5.83595,0 -10.37111,-2.15625 -13.60547,-6.46875 -1.50001,-2.01562 -2.55469,-4.14843 -3.16407,-6.39844 -0.67968,-2.41404 -1.01953,-4.65232 -1.01953,-6.71484 l 0.0703,-0.28125 c 0.0469,-3.16404 0.82031,-6.28122 2.32031,-9.35156 1.42968,-3.07028 3.39843,-5.47262 5.90625,-7.20703 m -1.82813,14.48437 h 21.09375 c -3e-5,-3.42185 -0.90237,-6.25778 -2.70703,-8.50781 -1.78127,-2.20309 -4.28908,-3.30466 -7.52344,-3.30469 -3.21095,3e-5 -5.76563,1.03128 -7.66406,3.09375 -2.13282,2.25003 -3.19922,5.15628 -3.19922,8.71875"
         id="path5161" />
    </g>
    <path
       sodipodi:nodetypes="cc"
       inkscape:connector-curvature="0"
       id="path3954"
       d="m 147.87667,1025.131 c 0.48291,13.1343 -10.52623,21.74 -19.40975,31.1833"
       style="fill:none;stroke:#000000;stroke-width:5;stroke-linecap:round;stroke-linejoin:miter;stroke-miterlimit:4;stroke-dasharray:none;stroke-opacity:1" />
    <path
       style="fill:none;stroke:#000000;stroke-width:5;stroke-linecap:round;stroke-linejoin:miter;stroke-miterlimit:4;stroke-dasharray:none;stroke-opacity:1"
       d="m 109.06995,1025.131 c -0.48292,13.1343 10.52623,21.74 19.40975,31.1833"
       id="path3950"
       inkscape:connector-curvature="0"
       sodipodi:nodetypes="cc" />
    <path
       style="fill:none;stroke:#000000;stroke-width:3;stroke-linecap:butt;stroke-linejoin:bevel;stroke-miterlimit:4;stroke-dasharray:none;stroke-opacity:1"
       d="m 108.8211,1088.4302 39.44162,0.017"
       id="path4474"
       inkscape:connector-curvature="0"
       sodipodi:nodetypes="cc" />
    <path
       sodipodi:nodetypes="cc"
       inkscape:connector-curvature="0"
       id="path4470"
       d="m 109.13215,1087.7182 c -0.48291,-13.1343 10.52625,-21.7399 19.40977,-31.1832"
       style="fill:none;fill-opacity:1;stroke:#000000;stroke-width:0.64066774;stroke-linecap:butt;stroke-linejoin:miter;stroke-miterlimit:4;stroke-dasharray:none;stroke-opacity:1" />
    <path
       style="fill:none;fill-opacity:1;stroke:#000000;stroke-width:0.64066774;stroke-linecap:butt;stroke-linejoin:miter;stroke-miterlimit:4;stroke-dasharray:none;stroke-opacity:1"
       d="m 147.93889,1087.7182 c 0.4829,-13.1343 -10.52625,-21.7399 -19.40977,-31.1832"
       id="path4472"
       inkscape:connector-curvature="0"
       sodipodi:nodetypes="cc" />
  </g>
</svg>
