<?xml version="1.0" standalone="no"?>
<!DOCTYPE svg PUBLIC "-//W3C//DTD SVG 20010904//EN"
 "http://www.w3.org/TR/2001/REC-SVG-20010904/DTD/svg10.dtd">
<svg version="1.0" xmlns="http://www.w3.org/2000/svg"
 width="260.000000pt" height="260.000000pt" viewBox="0 0 260.000000 260.000000"
 preserveAspectRatio="xMidYMid meet">
<metadata>
Created by potrace 1.11, written by Peter Selinger 2001-2013
</metadata>
<g transform="translate(0.000000,260.000000) scale(0.100000,-0.100000)"
fill="#000000" stroke="none">
<path d="M1080 2425 c-6 -7 -13 -26 -16 -41 -10 -53 -47 -124 -79 -153 -43
-38 -138 -73 -195 -72 -53 0 -93 13 -135 45 -16 12 -37 22 -46 21 -9 0 -58
-38 -108 -85 -105 -96 -104 -95 -58 -205 36 -87 39 -134 11 -195 -13 -27 -33
-61 -46 -74 -29 -30 -118 -87 -179 -113 -26 -12 -50 -27 -54 -34 -11 -17 -13
-180 -3 -202 5 -9 48 -37 96 -61 126 -62 126 -62 166 -146 42 -89 45 -131 15
-216 -11 -32 -26 -76 -32 -96 l-11 -37 78 -73 c113 -105 106 -103 198 -57 95
48 134 50 214 9 90 -45 114 -70 163 -166 l46 -89 80 -1 c121 -1 124 1 171 92
48 92 99 153 133 159 13 2 29 12 36 22 15 20 15 20 -63 104 -24 25 -50 56 -59
68 -14 21 -20 22 -82 15 -120 -13 -201 -5 -297 31 -213 80 -358 279 -369 505
-16 316 242 587 563 593 263 4 502 -173 567 -420 20 -74 18 -241 -3 -306 l-15
-47 70 -78 c88 -97 108 -100 138 -24 30 80 82 126 176 157 64 21 80 31 85 50
7 30 -1 209 -10 224 -4 7 -41 28 -81 47 -90 45 -141 93 -173 164 -29 67 -26
131 13 229 14 36 25 70 25 77 0 14 -46 61 -127 131 -58 50 -53 49 -153 8 -80
-34 -146 -30 -237 15 -72 35 -112 79 -137 152 -30 86 -32 87 -157 86 -76 0
-112 -4 -119 -13z"/>
<path d="M1165 1802 c-11 -1 -50 -12 -87 -23 l-67 -19 137 -141 c75 -78 140
-150 145 -161 6 -17 -5 -33 -63 -89 -39 -38 -79 -69 -89 -69 -10 0 -68 53
-132 122 -168 179 -150 167 -173 111 -16 -37 -20 -71 -20 -153 -1 -114 10
-151 75 -252 64 -99 241 -177 389 -172 l69 2 395 -399 395 -399 56 0 c87 0
143 18 185 60 44 44 58 93 54 188 l-3 70 -69 69 c-223 219 -696 679 -705 685
-6 3 -11 58 -12 135 -1 108 -5 137 -24 185 -31 76 -106 159 -175 191 -96 46
-215 71 -281 59z"/>
</g>
</svg>
